<?xml version="1.0" encoding="utf-8"?>
<!-- Generator: Adobe Illustrator 18.0.0, SVG Export Plug-In . SVG Version: 6.00 Build 0)  -->
<!DOCTYPE svg PUBLIC "-//W3C//DTD SVG 1.1//EN" "http://www.w3.org/Graphics/SVG/1.1/DTD/svg11.dtd">
<svg version="1.1" id="Layer_1" xmlns="http://www.w3.org/2000/svg" xmlns:xlink="http://www.w3.org/1999/xlink" x="0px" y="0px"
	 viewBox="0 0 1846 457" enable-background="new 0 0 1846 457" xml:space="preserve">
<g transform="translate(0.000000,457.000000) scale(0.100000,-0.100000)">
	<path fill="#FFFFFF" d="M10349,4557c-64-18-129-59-173-108c-107-118-114-297-17-425c124-166,352-185,505-44c97,90,132,240,85,365
		c-30,80-122,174-194,199C10486,4567,10404,4572,10349,4557z"/>
	<path fill="#FFFFFF" d="M2085,4544c-325-34-553-98-820-229c-455-223-807-574-1030-1030c-112-228-173-422-212-675
		c-24-160-24-491,1-650c74-474,286-903,616-1244c570-590,1412-820,2217-606c377,100,709,295,999,584c182,183,306,352,418,569
		c183,358,268,776,239,1173c-9,116-23,197-62,364c-56,239-69,283-131,420c-213,470-584,856-1048,1089c-308,155-612,229-962,236
		C2208,4547,2107,4546,2085,4544z M2434,4250c687-66,1280-469,1586-1080c75-150,94-206,146-428c57-247,68-340,61-522
		c-30-736-440-1369-1100-1696C2412,170,1556,287,951,820c-433,382-686,979-657,1551c26,507,224,957,576,1309
		C1285,4095,1859,4304,2434,4250z"/>
	<path fill="#FFFFFF" d="M2426,4066c-14-31-35-83-47-116l-22-60l-151,6c-140,5-153,4-183-15c-54-34-63-64-72-244
		c-8-178-4-207,35-248c34-35,58-40,218-48l129-6l24-89c13-48,41-127,63-173c22-47,40-87,40-88s-44-42-97-90c-54-49-106-100-115-114
		c-20-30-24-102-7-134c15-28,216-245,245-264c29-18,93-19,127-2c14,8,69,54,122,103l96,88l107-55c59-30,136-65,171-78l64-23l-7-145
		c-6-132-5-149,12-181c34-61,61-70,249-80c154-8,172-7,211,10c60,27,81,77,82,190c0,135,9,190,31,190c29,0,179,50,257,85
		c57,27,72,38,72,55c0,40-41,222-71,316c-25,80-74,202-84,212c-2,2-24-10-50-28c-386-266-905-62-999,393c-20,95-20,154-1,252
		c15,82,69,204,111,254l26,31l-45,19c-123,53-313,104-469,126l-47,7L2426,4066z"/>
	<path fill="#FFFFFF" d="M1565,3162c-16-11-36-26-43-35c-8-9-47-103-87-209c-68-177-76-193-97-191c-192,18-319,14-508-13l-46-6
		l-84,191c-47,105-88,191-91,191c-20,0-116-281-151-441c-20-92-22-133-22-349c-1-215,2-257,21-344c12-54,24-100,26-103
		c3-2,36,19,73,48c83,63,224,132,330,161c65,17,107,21,234,21c140,0,164-2,245-27c358-108,602-378,671-743c21-110,14-273-15-387
		c-28-104-96-245-160-330c-29-37-51-70-49-71c2-2,38-10,80-19c264-54,564-46,836,24c161,41,402,141,402,167c0,37-59,70-253,143
		c-177,67-197,77-192,95c14,51,17,286,5,390c-22,186-43,156,169,251c100,46,192,91,203,101c24,21,48,73,48,104c0,12-41,114-92,226
		c-97,216-117,245-182,257c-38,7-76-6-330-122l-109-49l-75,89c-79,94-202,207-289,266c-29,19-53,37-53,40s35,96,77,208
		c74,198,76,204,64,245c-7,23-23,51-37,64c-30,28-415,175-457,175C1609,3180,1582,3172,1565,3162z"/>
	<path fill="#FFFFFF" d="M5740,3509c-189-24-368-78-534-160c-103-51-295-174-303-195c-4-11,207-317,228-330c5-3,51,20,103,51
		c121,72,255,130,376,163c82,22,117,25,255,26c177,1,232-8,333-57c69-34,147-109,181-175c33-64,51-158,51-264v-96l-477-5
		c-446-4-485-5-576-26c-365-81-576-254-644-526c-25-102-22-304,6-410c61-231,213-407,443-514c128-60,229-82,396-88
		c178-7,293,7,432,53c168,56,289,131,412,258l58,59v-172V930l243,2l242,3l3,835c2,542-1,872-8,941c-27,272-122,464-297,596
		c-133,101-303,169-495,197C6056,3521,5850,3523,5740,3509z M6430,1972c0-226-29-311-145-427c-128-129-283-185-507-185
		c-144,0-239,18-323,60c-89,43-130,82-167,158c-30,60-33,75-33,157c0,78,4,97,28,147c58,119,191,187,402,207c44,5,230,9,413,10
		l332,1V1972z"/>
	<path fill="#FFFFFF" d="M8531,3509c-94-16-233-68-316-117c-87-51-247-202-306-287l-34-50l-3,213l-2,212h-270h-270V1745V10h270h270
		v646v645l80-73c197-178,367-269,589-313c123-25,341-17,474,18c300,79,578,296,745,582c181,310,224,790,105,1169
		c-126,401-466,709-893,807C8871,3514,8616,3525,8531,3509z M8724,3040c246-36,460-198,576-435c64-131,80-202,87-365
		c4-112,2-152-16-234c-75-364-393-626-761-626c-289,0-533,156-669,427c-54,108-72,192-78,358c-7,197,14,305,86,450
		C8105,2928,8395,3087,8724,3040z"/>
	<path fill="#FFFFFF" d="M12055,3509c-165-22-372-92-500-170c-233-141-438-372-534-603c-80-193-106-345-98-586c6-215,38-348,127-525
		c72-146,135-231,257-351c181-180,392-293,655-351c120-26,467-26,587,1c275,60,470,165,661,356c202,201,303,386,361,663
		c29,134,31,379,5,511c-53,269-163,482-350,669c-113,115-203,183-326,246c-202,104-353,140-605,146
		C12202,3517,12094,3515,12055,3509z M12470,3014c255-65,464-262,544-515c71-219,52-499-46-694c-115-229-324-378-578-416
		c-257-37-505,34-677,195c-176,164-253,353-253,620c0,265,67,443,230,607c117,118,264,192,430,218C12207,3042,12390,3034,12470,3014
		z"/>
	<path fill="#FFFFFF" d="M15027,3510c-248-45-454-177-618-394l-44-59l-3,211l-2,212h-270h-270V1745V10h270h270v648v647l77-73
		c188-175,368-272,592-317c123-25,341-17,474,18c198,53,377,158,538,317c110,109,171,192,234,316c91,178,134,358,142,595
		c17,466-133,827-447,1081c-155,126-318,205-509,249C15364,3513,15106,3525,15027,3510z M15214,3040c297-43,557-283,638-589
		c31-119,36-319,9-446c-48-237-208-443-425-549c-119-57-183-71-341-70c-124,0-149,3-220,27c-254,84-450,308-505,578
		c-45,215-19,448,69,624C14595,2928,14885,3087,15214,3040z"/>
	<path fill="#FFFFFF" d="M17330,3503c-115-17-283-72-367-119c-133-74-251-189-312-303c-56-106-76-192-76-331c0-110,3-134,27-197
		c30-84,98-183,165-243c127-112,270-185,523-265c422-135,567-210,620-320c54-112-18-254-165-322c-54-25-73-28-191-31
		c-151-4-256,12-392,59c-116,41-276,124-392,203c-52,35-95,64-96,63c-17-24-254-412-254-417c0-14,225-154,321-199
		c123-58,313-121,459-152c90-20,135-23,315-23c185-1,220,2,298,22c316,80,532,268,617,537c30,94,38,290,17,390
		c-49,230-152,347-422,480c-152,75-270,116-530,185c-218,58-323,104-370,163c-27,35-30,46-30,110c0,61,4,79,28,120
		c121,206,638,204,989-4c36-21,71-39,77-39s55,88,108,195c112,224,115,192-22,268C17992,3490,17648,3552,17330,3503z"/>
	<path fill="#FFFFFF" d="M10160,2205V930l268,2l267,3l3,1273l2,1272h-270h-270V2205z"/>
</g>
</svg>
