<?xml version="1.0" encoding="utf-8"?>
<!-- Generator: Adobe Illustrator 18.0.0, SVG Export Plug-In . SVG Version: 6.00 Build 0)  -->
<!DOCTYPE svg PUBLIC "-//W3C//DTD SVG 1.1//EN" "http://www.w3.org/Graphics/SVG/1.1/DTD/svg11.dtd">
<svg version="1.1" id="Layer_1" xmlns="http://www.w3.org/2000/svg" xmlns:xlink="http://www.w3.org/1999/xlink" x="0px" y="0px"
	 viewBox="0 0 2197 482" enable-background="new 0 0 2197 482" xml:space="preserve">
<g transform="translate(0.000000,482.000000) scale(0.100000,-0.100000)">
	<path d="M1915,4806c-123-30-245-106-384-241c-207-199-395-479-575-857c-154-321-299-870-371-1405c-14-101-25-187-25-192
		s-44-11-97-14c-218-11-366-105-436-277c-20-51-22-73-25-295c-3-212-1-250,18-337c49-228,162-496,290-691c88-133,160-208,222-231
		c45-18,48-18,85,0c94,47,174,258,223,595c11,79,23,158,26,176l5,31l62-25c73-30,250-76,358-93l75-12l28-87c39-123,161-366,254-506
		c110-165,236-320,273-335c52-22,99-7,148,47c178,194,392,552,468,783c15,47,28,86,29,88c1,1,55,12,120,22c139,24,308,69,388,104
		l56,25l4-22c3-12,10-65,16-117c16-133,47-290,76-393c85-300,187-365,338-214c200,201,390,630,442,997c19,133,14,333-10,419
		c-63,225-210,336-463,348l-113,6l-4,31c-3,17-16,115-30,218c-56,405-174,885-293,1187c-94,241-288,589-443,797
		c-138,185-349,375-483,434c-52,23-153,50-182,49C1974,4819,1943,4813,1915,4806z M2230,3935c36-10,99-32,141-50
		c279-117,504-389,581-701c27-113,30-321,5-430c-84-371-354-651-722-750c-57-15-103-19-245-18c-162,0-182,2-265,28
		c-260,80-472,253-594,486c-77,148-103,246-108,421c-8,223,28,367,139,553c152,254,370,413,648,472C1900,3964,2143,3958,2230,3935z"
		/>
	<path d="M2091,3799c-12-19-29-54-38-77l-16-44l-67,7c-96,10-108-3-116-121c-7-90-7-90,21-112c22-17,41-22,90-22c60,0,63-1,69-27
		c4-16,16-52,28-82l21-54l-51-47c-68-63-68-82,0-157c28-32,56-61,62-65c19-13,63-9,76,7c7,9,30,29,50,45l38,30l54-28
		c29-16,64-31,77-35c21-5,23-10,20-69c-3-73,5-105,29-112c9-3,52-8,94-11c73-7,78-6,102,18c22,23,26,35,26,90v63l68,22
		c107,34,105,31,87,134c-14,79-41,168-51,168c-2,0-22-13-44-29c-106-76-269-61-363,33c-63,63-82,109-82,206c0,92,19,146,72,201
		l24,27l-87,31c-48,18-107,34-130,38C2114,3832,2110,3831,2091,3799z"/>
	<path d="M1673,3345c-12-8-34-52-53-102l-33-88h-106c-58,0-118-3-132-7c-24-7-28-3-69,87c-23,52-46,95-50,95c-20,0-70-230-70-321
		c0-59,28-221,40-233c6-6,16-3,28,7c41,37,136,71,215,75c329,19,554-313,411-605c-14-30-24-56-21-59c12-12,218-16,286-5
		c77,12,231,59,231,70c0,4-36,20-80,36l-80,29l-2,113c-1,62-2,122-2,133c-1,17,16,28,79,57c44,19,88,43,99,53c25,24,17,61-37,170
		c-51,104-60,107-182,54l-87-38l-46,50c-26,27-69,68-96,90l-49,42l32,82c33,87,39,131,19,148c-16,12-195,82-212,82
		C1700,3360,1685,3353,1673,3345z"/>
	<path d="M16691,4799c-35-14-73-41-111-79c-75-75-103-144-103-250s28-175,103-250c127-127,317-141,462-35c102,75,162,219,140,337
		c-22,119-95,218-197,268C16914,4825,16769,4829,16691,4799z"/>
	<path d="M10122,4785c-77-22-110-42-168-101c-69-70-97-142-97-244c0-106,28-175,103-250c92-92,211-126,331-96
		c244,63,352,335,214,543C10423,4761,10260,4824,10122,4785z"/>
	<path d="M15570,2885V1030h285h285v1855v1855h-285h-285V2885z"/>
	<path d="M11230,4040v-420h-170h-170v-225v-225h170h170v-724c0-781,2-810,54-965c87-254,302-455,572-533c68-20,101-23,239-22
		c144,0,169,3,248,27c48,15,123,45,165,66c88,44,232,148,232,167c0,7-50,98-111,203l-111,190l-61-51c-34-28-91-65-127-82
		c-60-29-73-31-170-31c-93,0-112,3-162,27c-104,48-177,151-197,279c-7,40-11,325-11,757v692h350h350v225v225h-350h-350v420v420h-280
		h-280V4040z"/>
	<path d="M20350,4010v-420h-170h-170v-225v-225h170h170v-724c0-781,2-810,54-965c87-254,302-455,572-533c68-20,101-23,239-22
		c144,0,169,3,248,27c48,15,123,45,165,66c88,44,232,148,232,167c0,7-50,98-111,203l-111,190l-61-51c-34-28-91-65-127-82
		c-60-29-73-31-170-31c-93,0-112,3-162,27c-104,48-177,151-197,279c-7,40-11,325-11,757v692h350h350v225v225h-350h-350v420v420h-280
		h-280V4010z"/>
	<path d="M13874,3715c-179-27-364-84-526-165c-93-46-231-133-292-183l-28-23l123-172c67-95,126-172,131-172c4,0,37,18,73,40
		c172,105,344,174,510,206c131,24,341,16,446-18c130-42,215-111,269-218c35-69,50-135,57-257l6-113h-394c-217,0-448-5-514-11
		c-415-36-701-187-823-434c-54-108-67-173-67-345c0-183,14-247,82-389c38-80,59-108,137-186c207-208,450-295,790-282
		c313,12,537,101,738,295l88,85v-172v-171h261h260l-4,948c-3,921-4,949-24,1037c-45,190-98,297-201,406c-146,156-353,255-612,294
		C14244,3733,13998,3733,13874,3715z M14630,2088c0-164-10-219-52-303c-73-143-246-260-446-302c-93-19-326-13-412,11
		c-146,41-260,133-297,238c-26,77-24,206,6,275c37,84,127,158,235,193c101,33,183,38,574,39l392,1V2088z"/>
	<path d="M18573,3719c-109-16-250-57-336-97c-228-107-376-263-444-467c-23-71-27-96-27-220c-1-121,2-149,22-207
		c47-134,148-257,291-350c136-88,237-130,591-243c180-57,280-100,371-161c122-81,157-156,124-270c-13-45-28-69-73-114
		c-80-80-140-102-297-108c-263-9-520,74-806,263c-62,41-116,75-119,75s-66-97-139-215c-127-205-133-217-115-231
		c296-231,748-384,1134-384c204,0,360,31,508,100c342,161,517,471,473,838c-47,382-303,573-1022,762c-240,63-338,109-382,179
		c-18,29-22,50-22,107c1,62,5,79,31,120c16,27,47,61,69,76c89,62,251,95,415,83c199-14,352-57,526-149c58-31,107-56,110-56
		c8,0,205,402,202,412c-6,18-191,118-293,158c-128,50-225,76-350,95C18907,3731,18674,3733,18573,3719z"/>
	<path d="M5264,3685c-179-27-364-84-526-165c-93-46-231-133-292-183l-28-23l123-172c67-95,126-172,131-172c4,0,37,18,73,40
		c172,105,344,174,510,206c131,24,341,16,446-18c130-42,215-111,269-218c35-69,50-135,57-257l6-113h-394c-217,0-448-5-514-11
		c-415-36-701-187-823-434c-54-108-67-173-67-345c0-183,14-247,82-389c38-80,59-108,137-186c207-208,450-295,790-282
		c313,12,537,101,738,295l88,85v-172v-171h261h260l-4,948c-3,921-4,949-24,1037c-45,190-98,297-201,406c-146,156-353,255-612,294
		C5634,3703,5388,3703,5264,3685z M6020,2058c0-164-10-219-52-303c-73-143-246-260-446-302c-93-19-326-13-412,11
		c-146,41-260,133-297,238c-26,77-24,206,6,275c37,84,127,158,235,193c101,33,183,38,574,39l392,1V2058z"/>
	<path d="M8240,3693c-259-43-482-182-651-405l-59-79v225v226h-285h-285V1845V30h285h285v683v682l33-37c139-158,380-307,587-364
		c131-35,326-44,468-20c394,66,739,329,922,701c104,212,144,395,143,670c0,207-16,321-69,485c-65,201-165,362-319,509
		c-257,244-556,363-905,360C8321,3698,8254,3695,8240,3693z M8520,3179c237-65,453-268,544-510c58-155,73-381,36-559
		c-60-293-297-544-589-622c-92-25-284-29-376-9c-270,59-493,276-581,566c-26,84-28,103-28,275c-1,164,2,195,22,270
		c88,321,341,562,641,610C8273,3213,8434,3203,8520,3179z"/>
	<path d="M16540,2360V1030h285h285v1330v1330h-285h-285V2360z"/>
	<path d="M9920,2330V1000h285h285v1330v1330h-285h-285V2330z"/>
</g>
</svg>
