<?xml version="1.0" encoding="UTF-8" standalone="no"?>
<!-- Created with Inkscape (http://www.inkscape.org/) -->

<svg
   xmlns:dc="http://purl.org/dc/elements/1.1/"
   xmlns:cc="http://creativecommons.org/ns#"
   xmlns:rdf="http://www.w3.org/1999/02/22-rdf-syntax-ns#"
   xmlns:svg="http://www.w3.org/2000/svg"
   xmlns="http://www.w3.org/2000/svg"
   xmlns:sodipodi="http://sodipodi.sourceforge.net/DTD/sodipodi-0.dtd"
   xmlns:inkscape="http://www.inkscape.org/namespaces/inkscape"
   width="744.09448819"
   height="1052.3622047"
   id="svg3046"
   version="1.1"
   inkscape:version="0.48.4 r9939"
   sodipodi:docname="apiops-mikkeli.svg"
   inkscape:export-filename="/home/kyyberi/Dropbox/APIOps-site/images/apiops-logos/apiops-mikkeli.png"
   inkscape:export-xdpi="88.93824"
   inkscape:export-ydpi="88.93824">
  <defs
     id="defs3048" />
  <sodipodi:namedview
     id="base"
     pagecolor="#ffffff"
     bordercolor="#666666"
     borderopacity="1.0"
     inkscape:pageopacity="0.0"
     inkscape:pageshadow="2"
     inkscape:zoom="1.0420508"
     inkscape:cx="455.28339"
     inkscape:cy="812.77712"
     inkscape:document-units="px"
     inkscape:current-layer="layer1"
     showgrid="false"
     showguides="true"
     inkscape:guide-bbox="true"
     inkscape:window-width="1146"
     inkscape:window-height="740"
     inkscape:window-x="1"
     inkscape:window-y="55"
     inkscape:window-maximized="0" />
  <metadata
     id="metadata3051">
    <rdf:RDF>
      <cc:Work
         rdf:about="">
        <dc:format>image/svg+xml</dc:format>
        <dc:type
           rdf:resource="http://purl.org/dc/dcmitype/StillImage" />
        <dc:title></dc:title>
      </cc:Work>
    </rdf:RDF>
  </metadata>
  <g
     inkscape:label="Layer 1"
     inkscape:groupmode="layer"
     id="layer1">
    <path
       inkscape:connector-curvature="0"
       id="path5"
       d="m 414.62537,78.476474 c -2.35491,0.6414 -4.74661,2.10238 -6.36562,3.84842 -3.93711,4.20474 -4.19468,10.58314 -0.62552,15.14422 4.56264,5.915156 12.95201,6.592186 18.58172,1.56787 3.56916,-3.20701 4.857,-8.55203 3.12761,-13.00621 -1.10386,-2.85068 -4.48904,-6.20023 -7.13832,-7.09106 -2.53889,-0.81957 -5.55612,-0.99774 -7.57987,-0.46324 z" />
    <path
       style="fill:#03a9f4;fill-opacity:1"
       inkscape:connector-curvature="0"
       id="path7"
       d="m 110.54752,78.939714 c -11.958534,1.21153 -20.347904,3.49208 -30.172304,8.16006 -16.74194,7.94626 -29.69395,20.453606 -37.89934,36.702466 -4.12109,8.12444 -6.36562,15.03733 -7.80064,24.0526 -0.88309,5.70135 -0.88309,17.49603 0.0368,23.16175 2.72287,16.89027 10.52351,32.17702 22.66602,44.32804 20.97342,21.02375 51.955224,29.21944 81.575584,21.59388 13.8719,-3.56335 26.088,-10.51187 36.75868,-20.80995 6.69678,-6.52092 11.25942,-12.54298 15.38052,-20.27544 6.73357,-12.75678 9.86118,-27.65157 8.79412,-41.79806 -0.33116,-4.13348 -0.8463,-7.01979 -2.28132,-12.97058 -2.06055,-8.5164 -2.53889,-10.08428 -4.82021,-14.96606 -7.83744,-16.74773 -21.48856,-30.502246 -38.56167,-38.804846 -11.333,-5.52319 -22.51883,-8.16006 -35.39725,-8.4095 -3.75314,-0.0713 -7.46948,-0.0356 -8.27898,0.0356 z m 12.84162,10.47624 c 25.2785,2.3518 47.09822,16.712086 58.35763,38.484136 2.75966,5.34502 3.45878,7.3405 5.37214,15.25113 2.09735,8.80147 2.5021,12.11538 2.24453,18.60067 -1.10387,26.22623 -16.19001,48.78222 -40.47503,60.43436 -26.30877,12.61425 -57.805704,8.44514 -80.066974,-10.5475 -15.93244,-13.61199 -25.2417,-34.88517 -24.17463,-55.26751 0.95669,-18.06617 8.24219,-34.10124 21.1942,-46.64422 15.27012,-14.787886 36.390734,-22.235276 57.548134,-20.311066 z" />
    <path
       style="fill:#03a9f4"
       inkscape:connector-curvature="0"
       id="path9"
       d="m 123.09478,95.972504 c -0.51514,1.10464 -1.28784,2.95758 -1.72939,4.133486 l -0.8095,2.138 -5.55612,-0.2138 c -5.15137,-0.17816 -5.62971,-0.14253 -6.73357,0.53451 -1.98696,1.21153 -2.31812,2.28054 -2.64928,8.69456 -0.29436,6.34276 -0.14718,7.37613 1.28785,8.8371 1.25104,1.24717 2.13413,1.42534 8.02141,1.71041 l 4.74662,0.2138 0.88309,3.17138 c 0.47834,1.71041 1.50861,4.52545 2.31811,6.16459 0.80951,1.67477 1.47182,3.10011 1.47182,3.13574 0,0.0356 -1.619,1.49661 -3.56916,3.20702 -1.98695,1.74604 -3.90032,3.56334 -4.23148,4.06221 -0.73591,1.06901 -0.88309,3.63462 -0.25757,4.77489 0.55194,0.99773 7.94783,8.7302 9.0149,9.40723 1.06707,0.64141 3.42198,0.67704 4.67302,0.0713 0.51514,-0.28507 2.53889,-1.92421 4.48905,-3.67025 l 3.53237,-3.13574 3.93711,1.95984 c 2.17094,1.069 5.00419,2.31617 6.29203,2.77941 l 2.35491,0.81957 -0.25757,5.16685 c -0.22077,4.70362 -0.18397,5.30939 0.44155,6.44966 1.25105,2.17364 2.24452,2.49434 9.16207,2.85068 5.66651,0.28507 6.32883,0.24943 7.76385,-0.35634 2.20773,-0.9621 2.98043,-2.74377 3.01723,-6.77036 0,-4.81051 0.33116,-6.77036 1.14066,-6.77036 1.06707,0 6.58639,-1.78167 9.45644,-3.02884 2.09734,-0.9621 2.64927,-1.35407 2.64927,-1.95984 0,-1.42534 -1.50861,-7.91063 -2.61248,-11.26018 -0.91988,-2.85068 -2.72286,-7.19796 -3.09082,-7.55429 -0.0736,-0.0713 -0.88309,0.35633 -1.83977,0.99773 -14.20306,9.47851 -33.29991,2.20928 -36.75869,-14.00395 -0.73591,-3.38518 -0.73591,-5.48755 -0.0368,-8.97963 0.55193,-2.92195 2.53889,-7.26923 4.0843,-9.05091 l 0.95668,-1.104626 -1.6558,-0.67704 c -4.52584,-1.88857 -11.51698,-3.70588 -17.25708,-4.48982 l -1.72939,-0.24943 -0.91988,1.99547 z" />
    <path
       style="fill:#03a9f4"
       inkscape:connector-curvature="0"
       id="path11"
       d="m 91.413866,128.18516 c -0.58873,0.39197 -1.32464,0.92647 -1.58221,1.24717 -0.29436,0.3207 -1.72938,3.67025 -3.2012,7.4474 -2.5021,6.30712 -2.79646,6.87726 -3.56916,6.80599 -7.06474,-0.6414 -11.73776,-0.49887 -18.69211,0.46324 l -1.69259,0.2138 -3.09082,-6.806 c -1.72939,-3.74151 -3.238,-6.80599 -3.34839,-6.80599 -0.73591,0 -4.26828,10.01301 -5.55612,15.71436 -0.73591,3.27828 -0.8095,4.73925 -0.8095,12.43608 -0.0368,7.6612 0.0736,9.1578 0.77271,12.25792 0.44154,1.9242 0.88309,3.56334 0.95668,3.67024 0.11039,0.0713 1.32464,-0.67703 2.68607,-1.7104 3.05402,-2.24491 8.24219,-4.70362 12.14251,-5.73699 2.3917,-0.60577 3.93711,-0.74831 8.61014,-0.74831 5.15137,0 6.03446,0.0713 9.01489,0.96211 13.17278,3.84841 22.150884,13.46945 24.689774,26.47567 0.77271,3.91968 0.51514,9.72793 -0.55193,13.79015 -1.03028,3.70588 -3.53237,8.7302 -5.88728,11.75904 -1.06707,1.31844 -1.87657,2.49435 -1.80298,2.52998 0.0736,0.0713 1.39823,0.35634 2.94364,0.67704 9.71401,1.9242 20.75265,1.63914 30.76102,-0.85521 5.92408,-1.46097 14.79179,-5.02432 14.79179,-5.95079 0,-1.31843 -2.17094,-2.49434 -9.30926,-5.09558 -6.5128,-2.38744 -7.24871,-2.74378 -7.06473,-3.38518 0.51513,-1.81731 0.62552,-10.19117 0.18397,-13.89706 -0.8095,-6.62782 -1.5822,-5.55882 6.21844,-8.944 3.67955,-1.63914 7.06473,-3.24264 7.46948,-3.59898 0.88309,-0.7483 1.76619,-2.60124 1.76619,-3.70588 0,-0.4276 -1.50862,-4.06221 -3.38519,-8.05316 -3.56916,-7.69683 -4.30507,-8.7302 -6.69678,-9.1578 -1.39822,-0.24944 -2.79645,0.2138 -12.1425,4.34728 l -4.01071,1.74604 -2.75966,-3.17138 c -2.90685,-3.34954 -7.43269,-7.37613 -10.6339,-9.4785 -1.06707,-0.67704 -1.95016,-1.31844 -1.95016,-1.42534 0,-0.1069 1.28785,-3.42081 2.83326,-7.41176 2.72286,-7.05543 2.79645,-7.26923 2.35491,-8.7302 -0.25757,-0.81957 -0.8463,-1.81731 -1.36144,-2.28054 -1.10386,-0.99774 -15.270124,-6.23586 -16.815534,-6.23586 -0.66232,0 -1.6558,0.28507 -2.28132,0.6414 z" />
    <path
       inkscape:connector-curvature="0"
       id="path13"
       d="m 245.035,115.82035 c -6.95435,0.8552 -13.54074,2.77941 -19.64879,5.70135 -3.78993,1.81731 -10.85466,6.20023 -11.14903,6.94853 -0.14718,0.39197 7.61667,11.29581 8.38937,11.75904 0.18398,0.1069 1.87657,-0.71267 3.78994,-1.8173 4.45225,-2.56561 9.38284,-4.63235 13.8351,-5.80826 3.01723,-0.78394 4.30507,-0.89084 9.38285,-0.92647 6.5128,-0.0356 8.53655,0.28507 12.25289,2.03111 2.53889,1.21154 5.40894,3.88405 6.65998,6.23586 1.21425,2.28054 1.87657,5.63008 1.87657,9.40723 v 3.42081 l -17.55144,0.17817 c -16.41079,0.14254 -17.84581,0.17817 -21.1942,0.92647 -13.43035,2.88631 -21.1942,9.0509 -23.69629,18.74321 -0.91989,3.63461 -0.8095,10.83257 0.22077,14.60972 2.24453,8.23133 7.83744,14.50282 16.3004,18.3156 4.70982,2.13801 8.42617,2.92195 14.57101,3.13575 6.5496,0.24943 10.78108,-0.24944 15.89565,-1.88857 6.18164,-1.99548 10.63389,-4.66799 15.15974,-9.19344 l 2.13414,-2.10237 v 6.12895 6.09333 l 8.9413,-0.0713 8.9045,-0.1069 0.11039,-29.75395 c 0.0736,-19.31334 -0.0368,-31.07238 -0.29436,-33.53109 -0.99348,-9.69231 -4.48905,-16.53393 -10.92826,-21.23755 -4.8938,-3.59898 -11.14903,-6.02206 -18.21376,-7.0198 -4.1211,-0.60576 -11.70097,-0.67703 -15.74847,-0.17816 z m 25.38888,54.76864 c 0,8.05316 -1.06707,11.08201 -5.33534,15.21549 -4.70982,4.59672 -10.41312,6.59219 -18.65531,6.59219 -5.29855,0 -8.79412,-0.6414 -11.88494,-2.138 -3.2748,-1.53224 -4.78341,-2.92195 -6.14485,-5.63009 -1.10386,-2.13801 -1.21425,-2.67251 -1.21425,-5.59446 0,-2.77941 0.14718,-3.45644 1.03028,-5.23812 2.13413,-4.24038 7.02793,-6.66346 14.79178,-7.37613 1.619,-0.17816 8.46296,-0.3207 15.19653,-0.35633 l 12.2161,-0.0356 v 4.56108 z" />
    <path
       inkscape:connector-curvature="0"
       id="path15"
       d="m 347.73119,115.82035 c -3.45878,0.57013 -8.57335,2.42307 -11.62738,4.16911 -3.2012,1.81731 -9.08848,7.19796 -11.25941,10.22681 l -1.25105,1.78167 -0.11039,-7.58993 -0.0736,-7.55429 h -9.93478 -9.93478 v 61.82407 61.82407 h 9.93478 9.93478 v -23.01922 -22.98359 l 2.94364,2.60124 c 7.24871,6.34276 13.50394,9.5854 21.67254,11.15328 4.52584,0.89083 12.54726,0.60577 17.44106,-0.64141 11.03864,-2.81504 21.26778,-10.5475 27.41263,-20.73867 6.65998,-11.04638 8.24219,-28.15045 3.86353,-41.65553 -4.63624,-14.28902 -17.1467,-25.26413 -32.85837,-28.75621 -3.64275,-0.81957 -13.0256,-1.21154 -16.15321,-0.6414 z m 7.10152,16.71209 c 9.05169,1.28281 16.92592,7.05543 21.1942,15.50056 2.35491,4.66799 2.94364,7.19796 3.20121,13.00622 0.14718,3.99095 0.0736,5.41629 -0.58873,8.33823 -2.75966,12.97058 -14.46062,22.30655 -28.00136,22.30655 -10.6339,0 -19.61199,-5.55882 -24.61618,-15.21549 -1.98695,-3.84841 -2.64927,-6.84162 -2.87005,-12.75678 -0.25756,-7.01979 0.51514,-10.86821 3.16442,-16.03506 5.74009,-11.15328 16.41078,-16.819 28.51649,-15.14423 z" />
    <path
       inkscape:connector-curvature="0"
       id="path17"
       d="m 477.39846,115.82035 c -6.07125,0.78393 -13.68792,3.27828 -18.39774,6.05769 -8.57334,5.02432 -16.11642,13.25565 -19.64878,21.48698 -2.94364,6.87726 -3.90033,12.29355 -3.60596,20.88121 0.22077,7.6612 1.39823,12.40045 4.67302,18.70757 2.64928,5.20249 4.96739,8.23134 9.45644,12.50735 6.65998,6.41403 14.42383,10.44061 24.10104,12.50735 4.41546,0.92647 17.18349,0.92647 21.59895,-0.0356 10.11875,-2.13801 17.29387,-5.87953 24.32181,-12.68552 7.43268,-7.16233 11.14903,-13.75452 13.28317,-23.62499 1.06706,-4.77488 1.14066,-13.50508 0.18397,-18.2087 -1.95016,-9.58541 -5.99766,-17.17534 -12.87841,-23.83879 -4.15789,-4.09785 -7.46949,-6.52093 -11.99533,-8.76584 -7.43269,-3.70588 -12.98881,-4.98868 -22.26127,-5.20248 -3.42197,-0.0713 -7.39588,0 -8.83091,0.2138 z m 15.27012,17.63856 c 9.38285,2.31618 17.0731,9.33597 20.01674,18.35124 2.61248,7.80373 1.91337,17.7811 -1.69259,24.72963 -4.23148,8.16006 -11.92173,13.46945 -21.26779,14.82352 -9.45643,1.31844 -18.58171,-1.21154 -24.91053,-6.94852 -6.47601,-5.84389 -9.30926,-12.57862 -9.30926,-22.09276 0,-9.44286 2.4653,-15.78562 8.46296,-21.62951 4.30507,-4.20475 9.71401,-6.84163 15.82206,-7.7681 3.20121,-0.46323 9.93477,-0.17817 12.87841,0.5345 z" />
    <path
       inkscape:connector-curvature="0"
       id="path19"
       d="m 586.75463,115.78471 c -9.12528,1.60351 -16.70515,6.30713 -22.73961,14.03959 l -1.619,2.10238 -0.11039,-7.51867 -0.0736,-7.55429 h -9.93478 -9.93478 v 61.82407 61.82407 h 9.93478 9.93478 v -23.09049 -23.05486 l 2.83325,2.60125 c 6.91755,6.23585 13.54074,9.6923 21.78293,11.29581 4.52584,0.89083 12.54726,0.60577 17.44106,-0.64141 7.28551,-1.88857 13.87191,-5.63008 19.79598,-11.2958 4.0475,-3.88405 6.29203,-6.84163 8.61014,-11.26018 3.34839,-6.34276 4.9306,-12.75678 5.22496,-21.20192 0.62552,-16.60519 -4.8938,-29.46888 -16.44758,-38.51978 -5.7033,-4.48981 -11.70096,-7.30486 -18.72892,-8.87273 -3.56916,-0.78394 -13.06239,-1.21154 -15.96923,-0.67704 z m 6.88075,16.74773 c 10.92826,1.53224 20.4951,10.08428 23.47553,20.98812 1.14066,4.24038 1.32464,11.36707 0.33116,15.89253 -1.76618,8.44513 -7.65346,15.78562 -15.63809,19.56277 -4.37867,2.03111 -6.73358,2.52998 -12.54726,2.49434 -4.56264,0 -5.48253,-0.1069 -8.09501,-0.9621 -9.34605,-2.99321 -16.55796,-10.97511 -18.58172,-20.59615 -1.65579,-7.66119 -0.69911,-15.96379 2.53889,-22.23528 5.7401,-11.15328 16.41079,-16.819 28.5165,-15.14423 z" />
    <path
       inkscape:connector-curvature="0"
       id="path21"
       d="m 671.49463,116.03415 c -4.23148,0.60577 -10.41312,2.56561 -13.50394,4.24038 -4.8938,2.63688 -9.23567,6.73473 -11.48019,10.79694 -2.06055,3.77715 -2.79646,6.84163 -2.79646,11.79468 0,3.91968 0.11039,4.77489 0.99348,7.01979 1.10387,2.99322 3.60596,6.52093 6.07126,8.65894 4.67302,3.99095 9.93478,6.59219 19.24403,9.44287 15.5277,4.81051 20.86304,7.48303 22.8132,11.40271 1.98696,3.99095 -0.66231,9.0509 -6.07125,11.47397 -1.98696,0.89084 -2.68607,0.99774 -7.02794,1.10464 -5.55612,0.14254 -9.41964,-0.4276 -14.42383,-2.10237 -4.26827,-1.46098 -10.15555,-4.41855 -14.42383,-7.2336 -1.91336,-1.24717 -3.49557,-2.28054 -3.53236,-2.24491 -0.62553,0.85521 -9.34606,14.68099 -9.34606,14.85916 0,0.49887 8.27899,5.48756 11.81135,7.09106 4.52585,2.06674 11.51699,4.31165 16.88913,5.41629 3.31159,0.71267 4.96739,0.81957 11.59058,0.81957 6.80716,0.0356 8.09501,-0.0713 10.96505,-0.78394 11.62737,-2.85068 19.5752,-9.54977 22.70281,-19.13517 1.10387,-3.34955 1.39823,-10.33371 0.62553,-13.89705 -1.80298,-8.1957 -5.59292,-12.36482 -15.5277,-17.10407 -5.59291,-2.67251 -9.93477,-4.13348 -19.5016,-6.59219 -8.02142,-2.06674 -11.88494,-3.70588 -13.61433,-5.80826 -0.99348,-1.24717 -1.10387,-1.63914 -1.10387,-3.91968 0,-2.17364 0.14719,-2.81504 1.03028,-4.27602 4.45225,-7.34049 23.47552,-7.26922 36.39073,0.14254 1.32464,0.7483 2.61248,1.3897 2.83325,1.3897 0.22078,0 2.02376,-3.13574 3.97392,-6.94852 4.12109,-7.9819 4.23148,-6.84163 -0.8095,-9.54977 -10.41313,-5.59446 -23.07078,-7.80373 -34.77174,-6.05769 z" />
    <path
       inkscape:connector-curvature="0"
       id="path23"
       d="m 407.67103,162.28639 v 45.43268 l 9.86119,-0.0713 9.82439,-0.1069 0.11039,-45.36141 0.0736,-45.32577 h -9.93478 -9.93478 v 45.43267 z" />
    <text
       xml:space="preserve"
       style="font-size:4.70727587px;font-style:normal;font-weight:normal;line-height:125%;letter-spacing:0px;word-spacing:0px;fill:#000000;fill-opacity:1;stroke:none;font-family:Sans"
       x="246.84996"
       y="320.79068"
       id="text3020"
       sodipodi:linespacing="125%"
       transform="scale(1.0161742,0.98408324)"><tspan
         sodipodi:role="line"
         id="tspan3022"
         x="246.84996"
         y="320.79068"
         style="font-size:72.41963196px;line-height:125%;letter-spacing:0.76000023px;word-spacing:0.01px">Mikkeli</tspan></text>
    <rect
       style="fill:#03a9f4;fill-opacity:1;stroke:none"
       id="rect3083-3"
       width="124.754"
       height="7.6771674"
       x="585.20282"
       y="292.48831"
       rx="0.16395862" />
    <rect
       style="fill:#03a9f4;fill-opacity:1;stroke:none"
       id="rect3083-3-8"
       width="124.754"
       height="7.6771674"
       x="43.184055"
       y="291.52423"
       rx="0.16395862" />
  </g>
</svg>
